<?xml version="1.0" encoding="UTF-8" standalone="no"?>
<!-- Created with Inkscape (http://www.inkscape.org/) -->

<svg
   width="15.99995"
   height="16.00005"
   viewBox="0 0 4.2333201 4.2333464"
   version="1.1"
   id="svg5"
   xml:space="preserve"
   inkscape:version="1.2 (dc2aedaf03, 2022-05-15)"
   sodipodi:docname="El ultimo cafe 01.svg"
   xmlns:inkscape="http://www.inkscape.org/namespaces/inkscape"
   xmlns:sodipodi="http://sodipodi.sourceforge.net/DTD/sodipodi-0.dtd"
   xmlns="http://www.w3.org/2000/svg"
   xmlns:svg="http://www.w3.org/2000/svg"><sodipodi:namedview
     id="namedview7"
     pagecolor="#ffffff"
     bordercolor="#666666"
     borderopacity="1.0"
     inkscape:showpageshadow="2"
     inkscape:pageopacity="0.0"
     inkscape:pagecheckerboard="0"
     inkscape:deskcolor="#d1d1d1"
     inkscape:document-units="mm"
     showgrid="false"
     inkscape:zoom="7.4831651"
     inkscape:cx="11.35883"
     inkscape:cy="5.0780652"
     inkscape:window-width="1366"
     inkscape:window-height="705"
     inkscape:window-x="-8"
     inkscape:window-y="-8"
     inkscape:window-maximized="1"
     inkscape:current-layer="layer1" /><defs
     id="defs2"><inkscape:path-effect
       effect="bspline"
       id="path-effect1202"
       is_visible="true"
       lpeversion="1"
       weight="33.333333"
       steps="2"
       helper_size="0"
       apply_no_weight="true"
       apply_with_weight="true"
       only_selected="false" /><pattern
       id="EMFhbasepattern"
       patternUnits="userSpaceOnUse"
       width="6"
       height="6"
       x="0"
       y="0" /><clipPath
       clipPathUnits="userSpaceOnUse"
       id="clipPath6377"><rect
         style="fill:none;fill-opacity:0.694013;stroke:#e10000;stroke-width:1;stroke-linecap:round;stroke-miterlimit:2.9;stroke-dasharray:none;stroke-opacity:1"
         id="rect6379"
         width="42.602173"
         height="30.00153"
         x="123.00628"
         y="204.81044" /></clipPath><clipPath
       clipPathUnits="userSpaceOnUse"
       id="clipPath6435"><rect
         style="fill:#ff0000;fill-opacity:0.694013;stroke:#e10000;stroke-width:1;stroke-linecap:round;stroke-miterlimit:2.9;stroke-dasharray:none;stroke-opacity:1"
         id="rect6437"
         width="82.404205"
         height="27.001377"
         x="40.402058"
         y="234.41194" /></clipPath></defs><g
     inkscape:label="Capa 1"
     inkscape:groupmode="layer"
     id="layer1"
     transform="translate(-104.28877,-109.189)"><ellipse
       style="display:none;fill:#28170b;fill-opacity:1;stroke:#2b1100;stroke-width:0.0112587;stroke-linecap:round;stroke-miterlimit:2.9;stroke-dasharray:none;stroke-opacity:1"
       id="path6604"
       cx="106.4248"
       cy="111.28814"
       rx="1.9104482"
       ry="1.8951653"
       inkscape:transform-center-x="-0.10234721"
       inkscape:transform-center-y="0.044595291"
       inkscape:label="circulo fondo" /><g
       id="g6444"
       style="stroke:#000000"
       transform="matrix(0.05278202,0,0,0.05265072,100.78914,105.44535)"><circle
         style="display:inline;fill:none;fill-opacity:0.694013;stroke:#000000;stroke-width:1.6;stroke-linecap:square;stroke-miterlimit:2.9;stroke-dasharray:none;stroke-opacity:1"
         id="circle913"
         cx="106.49571"
         cy="111.02143"
         r="35.498573"
         inkscape:label="Circulo exterior" /><path
         style="fill:none;stroke:#000000;stroke-width:1;stroke-linecap:round;stroke-linejoin:miter;stroke-dasharray:none;stroke-opacity:1"
         d="m 127.14428,137.04429 c 0,0 12.29383,-9.73716 12.72858,-25.03286 0.43475,-15.295699 -12.30429,-27.01286 -12.30429,-27.01286"
         id="path1204"
         sodipodi:nodetypes="czc"
         inkscape:label="curva derecha" /><path
         style="fill:none;stroke:#000000;stroke-width:1;stroke-linecap:round;stroke-linejoin:miter;stroke-dasharray:none;stroke-opacity:1"
         d="m 87.91189,138.17027 c 0,0 4.080017,5.64669 17.11286,6.08144 13.03284,0.43475 19.65857,-5.37429 19.65857,-5.37429"
         id="path1932"
         sodipodi:nodetypes="czc"
         inkscape:label="curva inferior" /><path
         style="fill:none;stroke:#000000;stroke-width:1;stroke-linecap:round;stroke-linejoin:miter;stroke-dasharray:none;stroke-opacity:1"
         d="m 86.098103,137.04429 c 0,0 -12.093756,-8.73711 -12.528503,-24.03281 -0.43475,-15.295698 5.703884,-20.812543 5.703884,-20.812543"
         id="path1934"
         sodipodi:nodetypes="czc"
         inkscape:label="curva izquierda" /><path
         style="fill:none;stroke:#000000;stroke-width:1;stroke-linecap:round;stroke-linejoin:miter;stroke-dasharray:none;stroke-opacity:1"
         d="m 84.705839,86.706563 c 0,0 9.456027,-8.725506 19.518871,-9.160256 10.06284,-0.43475 20.45861,5.374286 20.45861,5.374286"
         id="path1936"
         sodipodi:nodetypes="czc"
         inkscape:label="curva superior" /></g><path
       style="fill:#000000;stroke:#000000;stroke-width:0.264797"
       d="m 149.12063,231.38657 c -0.5829,-0.88961 -0.37851,-4.0596 0.40854,-6.33635 0.63477,-1.83623 0.60808,-1.89858 -0.62217,-1.45372 -1.00587,0.36373 -2.0154,-0.14413 -2.0154,-1.01388 0,-0.23423 -0.42311,-0.0146 -1.11829,0.58042 -3.42774,2.93402 -4.88677,-0.0981 -1.50868,-3.1353 2.14848,-1.93167 4.74534,-2.23358 4.74534,-0.55169 0,0.78356 -0.41174,0.86714 -0.60631,0.12308 -0.49226,-1.88239 -5.21922,1.46321 -5.21922,3.69401 0,1.10284 2.07968,-0.0349 3.52204,-1.92679 0.97859,-1.2836 1.20633,-1.2274 1.15478,0.28496 -0.0834,2.44679 2.23622,1.30444 3.85164,-1.89684 1.01852,-2.01839 3.10581,-5.11419 4.01899,-5.96083 1.03175,-0.95658 0.85964,-0.16164 -0.30577,1.41228 -1.84588,2.49291 -4.29777,6.79811 -4.29777,7.54632 0,1.25643 2.52937,0.15954 3.91256,-1.69673 1.2427,-1.66774 3.19689,-2.73948 4.17911,-2.29195 1.46765,0.6687 -0.004,2.42381 -2.81485,3.35749 -1.43113,0.47534 -1.42427,0.46735 -1.03075,1.20265 0.60898,1.13789 3.2088,0.48103 5.08802,-1.28554 0.57038,-0.53618 0.72819,-0.59087 0.72819,-0.25237 0,2.07952 -5.68398,3.55645 -6.57029,1.70723 -0.34879,-0.72773 -0.34879,-0.72773 -1.02931,-0.19244 -0.37429,0.29442 -0.8134,0.53524 -0.97581,0.53517 -0.19799,-9e-5 -0.29528,0.89425 -0.29528,2.71417 0,4.3095 -1.78077,7.00162 -3.19931,4.83665 z m 2.14819,-1.26176 c 0.97819,-2.37879 0.73461,-6.55373 -0.38236,-6.55373 -0.68711,0 -1.76474,6.9082 -1.17036,7.50258 0.48831,0.48832 1.12063,0.10191 1.55272,-0.94885 z m 5.79485,-8.95407 c 1.90521,-0.89556 2.68919,-2.1311 1.09898,-1.73198 -0.71408,0.17922 -2.53275,1.64506 -2.53275,2.04138 0,0.33351 0.12207,0.30717 1.43377,-0.3094 z m -109.540673,8.79034 c -5.624153,-1.28555 -3.02129,-8.6536 3.841928,-10.87553 0.859959,-0.2784 0.941448,-0.3714 0.613139,-0.69971 -0.208246,-0.20824 -0.454044,-0.61624 -0.546218,-0.90665 -0.09956,-0.31369 -0.402193,-0.52908 -0.745538,-0.53061 -1.666957,-0.007 -4.2161,-1.88313 -4.591375,-3.37835 -0.575462,-2.29282 3.197504,-4.15378 5.747755,-2.83499 1.201885,0.62151 0.925766,0.93708 -0.41901,0.47887 -2.254812,-0.76829 -4.905956,0.54548 -4.510464,2.23516 0.447335,1.91116 4.651528,3.69088 4.651528,1.96908 0,-2.30577 6.285285,-5.2669 8.332411,-3.92557 2.632404,1.72482 -1.91751,5.44195 -6.677431,5.45524 -0.618963,0.002 -1.125387,0.1223 -1.125387,0.26794 0,0.49638 1.09359,1.36744 1.514161,1.20605 0.586959,-0.22523 1.398605,0.0841 1.398605,0.53297 0,0.2726 -0.332529,0.37935 -1.181653,0.37935 -5.977836,0 -11.069693,6.96526 -6.976786,9.54369 2.848025,1.79419 9.808004,-1.59915 10.794543,-5.26287 0.76696,-2.84827 -2.483687,-3.03604 -4.494903,-0.25963 -0.624704,0.86238 -0.78917,0.975 -0.78917,0.54041 0,-2.02012 4.038183,-3.99415 5.593809,-2.73448 3.454198,2.79704 -5.10355,10.01712 -10.429944,8.79963 z m 7.779815,-14.04315 c 4.481154,-1.14609 6.476378,-4.00791 2.78323,-3.99209 -2.233109,0.01 -4.668836,1.40766 -5.618151,3.22479 -0.762811,1.46014 -0.331011,1.57701 2.834921,0.7673 z m 77.030368,12.88289 c -2.06753,-1.05645 -3.05209,-4.00461 -2.17634,-6.5168 0.26342,-0.75562 0.23749,-0.78986 -0.93813,-1.23883 -3.78932,-1.44716 -4.87781,-5.30674 -2.22642,-7.89452 1.67832,-1.63806 4.88404,-2.28115 6.69722,-1.34352 1.13288,0.58583 0.75995,0.75961 -0.81785,0.3811 -5.87899,-1.41035 -9.14332,5.76988 -3.66376,8.05883 1.40262,0.58591 1.41027,0.58189 2.3705,-1.24374 3.65591,-6.95082 14.51881,-11.78214 14.51881,-6.45731 0,3.81967 -6.70425,8.48734 -13.10055,9.12095 -1.84669,0.18292 -1.84669,0.18292 -2.06258,1.37451 -0.93528,5.16224 3.01901,7.18051 8.08801,4.12812 1.64474,-0.99042 2.31933,-0.85123 0.92355,0.19054 -2.6026,1.94252 -5.54175,2.49876 -7.61246,1.44067 z m 3.34727,-8.24788 c 4.92625,-1.31164 9.58677,-5.141 9.61298,-7.89862 0.0389,-4.08862 -8.20079,-0.44626 -11.99446,5.30218 -2.05438,3.11293 -1.56447,3.64707 2.38148,2.59644 z m -59.648476,6.88418 c -1.565553,-1.56555 -1.091564,-3.37178 2.255948,-8.59672 3.820765,-5.96363 3.739502,-6.59497 -0.992358,-7.70988 -5.750165,-1.35485 -10.977928,4.31266 -6.003454,6.50845 0.794391,0.35065 0.794391,0.35065 0.03972,0.36102 -1.458547,0.02 -3.104415,-2.2631 -2.724017,-3.77873 0.884281,-3.52325 6.63553,-5.02153 11.121044,-2.89716 1.816822,0.86045 1.816822,0.86045 1.64298,-0.0662 -0.111225,-0.59289 -0.07115,-0.92666 0.111265,-0.92666 0.356917,0 0.584224,0.57508 0.636259,1.60974 0.02211,0.43968 0.199448,0.89783 0.394081,1.01812 0.247355,0.15287 0.265658,0.27323 0.06081,0.39983 -0.161187,0.0996 -0.297346,0.0847 -0.302578,-0.0331 -0.0052,-0.11782 -0.415062,0.65011 -0.910732,1.70652 -0.495674,1.05641 -1.564137,2.93774 -2.374365,4.18074 -3.485005,5.34647 -3.918549,8.32995 -1.210471,8.32995 3.241111,0 10.74411,-8.34072 11.922782,-13.25397 0.325199,-1.35559 0.643223,-1.81458 0.860653,-1.24214 0.276085,0.72686 -0.204863,2.2306 -1.546533,4.83541 -2.296904,4.45937 -2.882439,7.94378 -1.577263,9.38598 0.418906,0.46289 0.428741,0.53951 0.06924,0.53951 -1.007229,0 -1.571458,-1.33354 -1.474214,-3.48426 0.09169,-2.02788 0.09169,-2.02788 -2.359899,0.34381 -3.785187,3.66182 -5.958722,4.44991 -7.638893,2.76974 z m -16.258862,-3.46924 c -1.568715,-1.89019 3.709449,-11.55154 6.124198,-11.20997 1.713337,0.24236 0.429716,2.83097 -3.398708,6.85398 -3.499947,3.67785 -2.521361,6.22306 1.106815,2.87873 0.633985,-0.58439 1.218498,-0.95606 1.298918,-0.82594 0.148141,0.2397 -0.663371,1.07922 -2.055237,2.12619 -0.896747,0.67453 -2.582565,0.77154 -3.075986,0.17701 z m 5.568402,-8.52731 c 2.149575,-3.38953 -0.538996,-1.93277 -2.886535,1.56403 -2.118523,3.15566 -2.06998,3.96861 0.103397,1.73157 1.097844,-1.13 2.350256,-2.61302 2.783138,-3.2956 z m 24.308475,8.65048 c -2.41673,-1.41019 3.613012,-12.2265 6.251446,-11.21404 1.254194,0.48128 0.0744,2.60494 -3.681921,6.62748 -2.572724,2.75507 -2.965373,3.54696 -2.011762,4.05732 0.86208,0.46137 3.724486,-1.22517 3.724486,-2.19449 0,-0.13546 0.357477,-0.94976 0.794384,-1.80955 0.94254,-1.8548 0.93345,-1.799 0.2648,-1.62414 -0.291277,0.0762 -0.529597,0.0182 -0.529597,-0.12886 0,-0.30249 0.620017,-0.58831 1.279447,-0.58982 0.242953,-5.6e-4 0.94753,-0.65593 1.565727,-1.45638 0.618194,-0.80046 1.303361,-1.45538 1.522581,-1.45538 0.582317,0 0.510477,0.16948 -0.660607,1.55832 -1.285414,1.52443 -1.284914,1.51796 -0.1324,1.73417 1.467654,0.27534 1.142664,0.75885 -0.370187,0.55078 -1.399851,-0.19253 -2.684744,1.5296 -3.113761,4.17334 -0.29669,1.82824 2.428744,1.00973 3.789858,-1.13819 0.972124,-1.53407 1.981917,-2.65002 2.248717,-2.48513 0.13877,0.0858 -0.0339,0.53236 -0.38375,0.99267 -3.934035,5.1759 -0.627193,4.87504 3.89992,-0.35482 0.65804,-0.76018 1.07455,-1.06404 1.15045,-0.83931 0.0654,0.19375 -0.16901,0.67038 -0.521,1.05919 -1.92481,2.12612 -2.24706,2.88237 -0.60214,1.4131 3.46559,-3.09553 6.96725,-3.48966 4.87293,-0.54847 -0.66739,0.93728 -0.48181,0.9748 0.63149,0.1277 1.84228,-1.40178 3.29179,-0.99294 2.58387,0.7288 -0.76854,1.86916 -0.71814,2.3957 0.21149,2.20977 1.0187,-0.20374 2.35533,-1.15704 2.56982,-1.83283 1.01531,-3.19897 5.82217,-4.18068 5.32006,-1.08652 -0.45257,2.78885 -4.40928,4.90247 -5.3205,2.84214 -0.24453,-0.5529 -0.24453,-0.5529 -1.16234,0.0699 -2.09889,1.42434 -3.74129,0.29722 -2.56508,-1.76033 1.2024,-2.10338 -0.33487,-1.70698 -3.28105,0.84605 -2.01202,1.74354 -2.19,1.17314 -0.42325,-1.35651 2.40198,-3.43919 -0.10626,-2.63517 -4.22067,1.35295 -1.6758,1.62436 -2.52709,2.06372 -2.16368,1.1167 0.18292,-0.47668 0.0227,-0.46698 -0.76023,0.046 -0.816943,0.53528 -1.99092,0.39424 -2.364257,-0.28403 -0.16033,-0.29128 -0.320557,-0.57852 -0.356077,-0.63831 -0.0355,-0.0598 -0.27405,0.0809 -0.530077,0.31257 -1.213944,1.09861 -3.059941,1.1932 -3.383621,0.17338 -0.154487,-0.48674 -0.223367,-0.50513 -0.613437,-0.16371 -1.210705,1.05968 -2.681983,1.46331 -3.530082,0.96843 z m 28.657521,-1.53083 c 1.57066,-1.57065 1.75368,-3.22589 0.35669,-3.22589 -1.02281,0 -3.01863,2.04869 -3.01863,3.09859 0,1.53062 1.20118,1.58806 2.66194,0.1273 z m -25.635836,-4.43336 c 2.730898,-3.03213 3.654488,-4.61806 2.689398,-4.61806 -0.698207,0 -2.590118,2.12735 -3.934765,4.42441 -1.856417,3.17132 -1.488074,3.22859 1.245367,0.19365 z m 66.400586,-0.25946 c 0,-0.48288 1.13442,-2.24022 1.44613,-2.24022 0.76582,0 0.7072,0.6007 -0.14433,1.47926 -0.80391,0.82943 -1.3018,1.12047 -1.3018,0.76096 z m -57.41574,-1.35254 c 0.0513,-0.26642 0.31127,-0.52638 0.57769,-0.57769 0.34982,-0.0674 0.45848,0.0413 0.39111,0.39111 -0.0513,0.26642 -0.31126,0.52638 -0.57768,0.57769 -0.34982,0.0674 -0.45849,-0.0413 -0.39112,-0.39111 z m -14.608995,-5.22999 c 0,-1.04422 1.081362,-2.36892 1.550669,-1.89962 0.385386,0.38539 0.337087,0.50579 -0.564615,1.40749 -0.786429,0.78643 -0.986054,0.88606 -0.986054,0.49213 z"
       id="path6315"
       clip-path="url(#clipPath6377)"
       transform="matrix(0.07130571,0,0,0.08166848,96.093066,93.780493)"
       inkscape:label="Cafe texto" /><path
       style="fill:#000000;stroke:#000000;stroke-width:0.264797"
       d="m 148.92062,260.18804 c -0.5829,-0.88961 -0.37851,-4.0596 0.40854,-6.33635 0.63477,-1.83623 0.60808,-1.89858 -0.62217,-1.45372 -1.00587,0.36373 -2.0154,-0.14413 -2.0154,-1.01388 0,-0.23423 -0.42311,-0.0146 -1.11829,0.58042 -3.42774,2.93402 -4.88677,-0.0981 -1.50868,-3.1353 2.14848,-1.93167 4.74534,-2.23358 4.74534,-0.55169 0,0.78356 -0.41174,0.86714 -0.60631,0.12308 -0.49226,-1.88239 -5.21922,1.46321 -5.21922,3.69401 0,1.10284 2.07968,-0.0349 3.52204,-1.92679 0.97859,-1.2836 1.20633,-1.2274 1.15478,0.28496 -0.0834,2.44679 2.23622,1.30444 3.85164,-1.89684 1.01852,-2.01839 3.10581,-5.11419 4.01899,-5.96083 1.03175,-0.95658 0.85964,-0.16164 -0.30577,1.41228 -1.84588,2.49291 -4.29777,6.79811 -4.29777,7.54632 0,1.25643 2.52937,0.15954 3.91256,-1.69673 1.2427,-1.66774 3.19689,-2.73948 4.17911,-2.29195 1.46765,0.6687 -0.004,2.42381 -2.81485,3.35749 -1.43113,0.47534 -1.42427,0.46735 -1.03075,1.20265 0.60898,1.13789 3.2088,0.48103 5.08802,-1.28554 0.57038,-0.53618 0.72819,-0.59087 0.72819,-0.25237 0,2.07952 -5.68398,3.55645 -6.57029,1.70723 -0.34879,-0.72773 -0.34879,-0.72773 -1.02931,-0.19244 -0.37429,0.29442 -0.8134,0.53524 -0.97581,0.53517 -0.19799,-9e-5 -0.29528,0.89425 -0.29528,2.71417 0,4.3095 -1.78077,7.00162 -3.19931,4.83665 z m 2.14819,-1.26176 c 0.97819,-2.37879 0.73461,-6.55373 -0.38236,-6.55373 -0.68711,0 -1.76474,6.9082 -1.17036,7.50258 0.48831,0.48832 1.12063,0.10191 1.55272,-0.94885 z m 5.79485,-8.95407 c 1.90521,-0.89556 2.68919,-2.1311 1.09898,-1.73198 -0.71408,0.17922 -2.53275,1.64506 -2.53275,2.04138 0,0.33351 0.12207,0.30717 1.43377,-0.3094 z m -109.540673,8.79034 c -5.624153,-1.28555 -3.02129,-8.6536 3.841928,-10.87553 0.859959,-0.2784 0.941448,-0.3714 0.613139,-0.69971 -0.208246,-0.20824 -0.454044,-0.61624 -0.546218,-0.90665 -0.09956,-0.31369 -0.402193,-0.52908 -0.745538,-0.53061 -1.666957,-0.007 -4.2161,-1.88313 -4.591375,-3.37835 -0.575462,-2.29282 3.197504,-4.15378 5.747755,-2.83499 1.201885,0.62151 0.925766,0.93708 -0.41901,0.47887 -2.254812,-0.76829 -4.905956,0.54548 -4.510464,2.23516 0.447335,1.91116 4.651528,3.69088 4.651528,1.96908 0,-2.30577 6.285285,-5.2669 8.332411,-3.92557 2.632404,1.72482 -1.91751,5.44195 -6.677431,5.45524 -0.618963,0.002 -1.125387,0.1223 -1.125387,0.26794 0,0.49638 1.09359,1.36744 1.514161,1.20605 0.586959,-0.22523 1.398605,0.0841 1.398605,0.53297 0,0.2726 -0.332529,0.37935 -1.181653,0.37935 -5.977836,0 -11.069693,6.96526 -6.976786,9.54369 2.848025,1.79419 9.808004,-1.59915 10.794543,-5.26287 0.76696,-2.84827 -2.483687,-3.03604 -4.494903,-0.25963 -0.624704,0.86238 -0.78917,0.975 -0.78917,0.54041 0,-2.02012 4.038183,-3.99415 5.593809,-2.73448 3.454198,2.79704 -5.10355,10.01712 -10.429944,8.79963 z m 7.779815,-14.04315 c 4.481154,-1.14609 6.476378,-4.00791 2.78323,-3.99209 -2.233109,0.01 -4.668836,1.40766 -5.618151,3.22479 -0.762811,1.46014 -0.331011,1.57701 2.834921,0.7673 z m 77.030368,12.88289 c -2.06753,-1.05645 -3.05209,-4.00461 -2.17634,-6.5168 0.26342,-0.75562 0.23749,-0.78986 -0.93813,-1.23883 -3.78932,-1.44716 -4.87781,-5.30674 -2.22642,-7.89452 1.67832,-1.63806 4.88404,-2.28115 6.69722,-1.34352 1.13288,0.58583 0.75995,0.75961 -0.81785,0.3811 -5.87899,-1.41035 -9.14332,5.76988 -3.66376,8.05883 1.40262,0.58591 1.41027,0.58189 2.3705,-1.24374 3.65591,-6.95082 14.51881,-11.78214 14.51881,-6.45731 0,3.81967 -6.70425,8.48734 -13.10055,9.12095 -1.84669,0.18292 -1.84669,0.18292 -2.06258,1.37451 -0.93528,5.16224 3.01901,7.18051 8.08801,4.12812 1.64474,-0.99042 2.31933,-0.85123 0.92355,0.19054 -2.6026,1.94252 -5.54175,2.49876 -7.61246,1.44067 z m 3.34727,-8.24788 c 4.92625,-1.31164 9.58677,-5.141 9.61298,-7.89862 0.0389,-4.08862 -8.20079,-0.44626 -11.99446,5.30218 -2.05438,3.11293 -1.56447,3.64707 2.38148,2.59644 z m -59.648476,6.88418 c -1.565553,-1.56555 -1.091564,-3.37178 2.255948,-8.59672 3.820765,-5.96363 3.739502,-6.59497 -0.992358,-7.70988 -5.750165,-1.35485 -10.977928,4.31266 -6.003454,6.50845 0.794391,0.35065 0.794391,0.35065 0.03972,0.36102 -1.458547,0.02 -3.104415,-2.2631 -2.724017,-3.77873 0.884281,-3.52325 6.63553,-5.02153 11.121044,-2.89716 1.816822,0.86045 1.816822,0.86045 1.64298,-0.0662 -0.111225,-0.59289 -0.07115,-0.92666 0.111265,-0.92666 0.356917,0 0.584224,0.57508 0.636259,1.60974 0.02211,0.43968 0.199448,0.89783 0.394081,1.01812 0.247355,0.15287 0.265658,0.27323 0.06081,0.39983 -0.161187,0.0996 -0.297346,0.0847 -0.302578,-0.0331 -0.0052,-0.11782 -0.415062,0.65011 -0.910732,1.70652 -0.495674,1.05641 -1.564137,2.93774 -2.374365,4.18074 -3.485005,5.34647 -3.918549,8.32995 -1.210471,8.32995 3.241111,0 10.74411,-8.34072 11.922782,-13.25397 0.325199,-1.35559 0.643223,-1.81458 0.860653,-1.24214 0.276085,0.72686 -0.204863,2.2306 -1.546533,4.83541 -2.296904,4.45937 -2.882439,7.94378 -1.577263,9.38598 0.418906,0.46289 0.428741,0.53951 0.06924,0.53951 -1.007229,0 -1.571458,-1.33354 -1.474214,-3.48426 0.09169,-2.02788 0.09169,-2.02788 -2.359899,0.34381 -3.785187,3.66182 -5.958722,4.44991 -7.638893,2.76974 z m -16.258862,-3.46924 c -1.568715,-1.89019 3.709449,-11.55154 6.124198,-11.20997 1.713337,0.24236 0.429716,2.83097 -3.398708,6.85398 -3.499947,3.67785 -2.521361,6.22306 1.106815,2.87873 0.633985,-0.58439 1.218498,-0.95606 1.298918,-0.82594 0.148141,0.2397 -0.663371,1.07922 -2.055237,2.12619 -0.896747,0.67453 -2.582565,0.77154 -3.075986,0.17701 z m 5.568402,-8.52731 c 2.149575,-3.38953 -0.538996,-1.93277 -2.886535,1.56403 -2.118523,3.15566 -2.06998,3.96861 0.103397,1.73157 1.097844,-1.13 2.350256,-2.61302 2.783138,-3.2956 z m 24.308475,8.65048 c -2.41673,-1.41019 3.613012,-12.2265 6.251446,-11.21404 1.254194,0.48128 0.0744,2.60494 -3.681921,6.62748 -2.572724,2.75507 -2.965373,3.54696 -2.011762,4.05732 0.86208,0.46137 3.724486,-1.22517 3.724486,-2.19449 0,-0.13546 0.357477,-0.94976 0.794384,-1.80955 0.94254,-1.8548 0.93345,-1.799 0.2648,-1.62414 -0.291277,0.0762 -0.529597,0.0182 -0.529597,-0.12886 0,-0.30249 0.620017,-0.58831 1.279447,-0.58982 0.242953,-5.6e-4 0.94753,-0.65593 1.565727,-1.45638 0.618194,-0.80046 1.303361,-1.45538 1.522581,-1.45538 0.582317,0 0.510477,0.16948 -0.660607,1.55832 -1.285414,1.52443 -1.284914,1.51796 -0.1324,1.73417 1.467654,0.27534 1.142664,0.75885 -0.370187,0.55078 -1.399851,-0.19253 -2.684744,1.5296 -3.113761,4.17334 -0.29669,1.82824 2.428744,1.00973 3.789858,-1.13819 0.972124,-1.53407 1.981917,-2.65002 2.248717,-2.48513 0.13877,0.0858 -0.0339,0.53236 -0.38375,0.99267 -3.934035,5.1759 -0.627193,4.87504 3.89992,-0.35482 0.65804,-0.76018 1.07455,-1.06404 1.15045,-0.83931 0.0654,0.19375 -0.16901,0.67038 -0.521,1.05919 -1.92481,2.12612 -2.24706,2.88237 -0.60214,1.4131 3.46559,-3.09553 6.96725,-3.48966 4.87293,-0.54847 -0.66739,0.93728 -0.48181,0.9748 0.63149,0.1277 1.84228,-1.40178 3.29179,-0.99294 2.58387,0.7288 -0.76854,1.86916 -0.71814,2.3957 0.21149,2.20977 1.0187,-0.20374 2.35533,-1.15704 2.56982,-1.83283 1.01531,-3.19897 5.82217,-4.18068 5.32006,-1.08652 -0.45257,2.78885 -4.40928,4.90247 -5.3205,2.84214 -0.24453,-0.5529 -0.24453,-0.5529 -1.16234,0.0699 -2.09889,1.42434 -3.74129,0.29722 -2.56508,-1.76033 1.2024,-2.10338 -0.33487,-1.70698 -3.28105,0.84605 -2.01202,1.74354 -2.19,1.17314 -0.42325,-1.35651 2.40198,-3.43919 -0.10626,-2.63517 -4.22067,1.35295 -1.6758,1.62436 -2.52709,2.06372 -2.16368,1.1167 0.18292,-0.47668 0.0227,-0.46698 -0.76023,0.046 -0.816943,0.53528 -1.99092,0.39424 -2.364257,-0.28403 -0.16033,-0.29128 -0.320557,-0.57852 -0.356077,-0.63831 -0.0355,-0.0598 -0.27405,0.0809 -0.530077,0.31257 -1.213944,1.09861 -3.059941,1.1932 -3.383621,0.17338 -0.154487,-0.48674 -0.223367,-0.50513 -0.613437,-0.16371 -1.210705,1.05968 -2.681983,1.46331 -3.530082,0.96843 z m 28.657521,-1.53083 c 1.57066,-1.57065 1.75368,-3.22589 0.35669,-3.22589 -1.02281,0 -3.01863,2.04869 -3.01863,3.09859 0,1.53062 1.20118,1.58806 2.66194,0.1273 z m -25.635836,-4.43336 c 2.730898,-3.03213 3.654488,-4.61806 2.689398,-4.61806 -0.698207,0 -2.590118,2.12735 -3.934765,4.42441 -1.856417,3.17132 -1.488074,3.22859 1.245367,0.19365 z m 66.400586,-0.25946 c 0,-0.48288 1.13442,-2.24022 1.44613,-2.24022 0.76582,0 0.7072,0.6007 -0.14433,1.47926 -0.80391,0.82943 -1.3018,1.12047 -1.3018,0.76096 z m -57.41574,-1.35254 c 0.0513,-0.26642 0.31127,-0.52638 0.57769,-0.57769 0.34982,-0.0674 0.45848,0.0413 0.39111,0.39111 -0.0513,0.26642 -0.31126,0.52638 -0.57768,0.57769 -0.34982,0.0674 -0.45849,-0.0413 -0.39112,-0.39111 z m -14.608995,-5.22999 c 0,-1.04422 1.081362,-2.36892 1.550669,-1.89962 0.385386,0.38539 0.337087,0.50579 -0.564615,1.40749 -0.786429,0.78643 -0.986054,0.88606 -0.986054,0.49213 z"
       id="path6375"
       clip-path="url(#clipPath6435)"
       transform="matrix(0.03846783,0,0,0.03837214,103.249,100.95745)"
       inkscape:label="elUltimo texto" /><rect
       style="fill:none;fill-opacity:0.694013;stroke:#2b1100;stroke-width:0.0105433;stroke-linecap:round;stroke-miterlimit:2.9;stroke-dasharray:none;stroke-opacity:1"
       id="rect6498"
       width="4.2227769"
       height="4.2228031"
       x="104.29404"
       y="109.19427"
       inkscape:export-filename="favicon.ico.png"
       inkscape:export-xdpi="96"
       inkscape:export-ydpi="96" /></g></svg>
